<?xml version="1.0" standalone="no"?>
<!DOCTYPE svg PUBLIC "-//W3C//DTD SVG 1.1//EN" "http://www.w3.org/Graphics/SVG/1.1/DTD/svg11.dtd" >
<svg xmlns="http://www.w3.org/2000/svg">
<metadata>
This is a custom SVG webfont generated by Briefcase Type Foundry.
</metadata>
<defs>
<font id="briefcasetype-EfUGnm4q" horiz-adv-x="547" >
<font-face units-per-em="1000" ascent="782" descent="-218" />
<missing-glyph horiz-adv-x="230" />
<glyph unicode=" "  horiz-adv-x="230" />
<glyph unicode="&#x09;" horiz-adv-x="230" />
<glyph unicode="&#xa0;" horiz-adv-x="230" />
<glyph unicode="A" horiz-adv-x="659" d="M452 275l-125 347l-125 -347h250zM278 722h103l265 -722h-97l-71 196h-303l-70 -196h-92z" />
<glyph unicode="B" horiz-adv-x="664" d="M295 411q83 0 122 28.5t39 88.5q0 55 -36.5 85.5t-112.5 30.5h-124v-233h112zM332 78q89 0 131 32t42 96q0 58 -39.5 92.5t-118.5 34.5h-164v-255h149zM92 722h202q120 0 188 -46.5t68 -143.5q0 -29 -7.5 -52.5t-20 -42t-28 -32t-31.5 -22.5q29 -9 54.5 -24t44 -37.5 t29 -52t10.5 -67.5q0 -95 -63 -148.5t-181 -53.5h-265v722z" />
<glyph unicode="C" horiz-adv-x="685" d="M355 -15q-76 0 -130.5 28.5t-90 79t-52 119.5t-16.5 149t16.5 149t52 119.5t90 79t130.5 28.5q54 0 100 -16.5t81.5 -48t57 -78t25.5 -106.5h-89q-8 48 -24.5 80.5t-40 52t-51.5 27.5t-59 8q-53 0 -89.5 -22t-59.5 -61.5t-33.5 -93.5t-10.5 -118t10.5 -118t34 -93.5 t60 -61.5t88.5 -22q30 0 57 7.5t49 24t37.5 44t23.5 67.5h90q-5 -54 -26.5 -96t-55.5 -70.5t-78.5 -43t-96.5 -14.5z" />
<glyph unicode="D" horiz-adv-x="670" d="M92 722h190q93 0 155 -30t99 -80t52.5 -115t15.5 -136t-15 -136t-51.5 -115t-98 -80t-154.5 -30h-193v722zM281 78q71 0 115 25.5t69 66t33.5 91t8.5 100.5t-9 100.5t-34.5 91t-70 66t-115.5 25.5h-95v-566h98z" />
<glyph unicode="E" horiz-adv-x="599" d="M92 722h443v-78h-352v-233h279v-78h-279v-255h362v-78h-453v722z" />
<glyph unicode="F" horiz-adv-x="563" d="M92 722h431v-78h-340v-239h268v-78h-268v-327h-91v722z" />
<glyph unicode="G" horiz-adv-x="691" d="M356 -15q-77 0 -131.5 28.5t-90 79t-52 119.5t-16.5 149t17 149t53 119.5t91 79t131 28.5q53 0 97.5 -14.5t78 -42t55 -68.5t28.5 -95h-90q-13 63 -53.5 101.5t-115.5 37.5q-53 0 -90 -22.5t-60.5 -62t-34.5 -93.5t-11 -117t10.5 -117t33.5 -93.5t60 -62t90 -22.5 q52 0 86 20.5t54 53t28.5 72.5t10.5 80h-205v79h294v-41q1 -71 -12 -133.5t-44.5 -109.5t-83.5 -74.5t-128 -27.5z" />
<glyph unicode="H" horiz-adv-x="704" d="M92 722h91v-311h338v311h91v-722h-91v333h-338v-333h-91v722z" />
<glyph unicode="I" horiz-adv-x="275" d="M92 722h91v-722h-91v722z" />
<glyph unicode="J" horiz-adv-x="548" d="M234 -15q-49 0 -89 15t-68.5 44.5t-44 73t-15.5 99.5h91q1 -79 36.5 -115t89.5 -36q42 0 68 18.5t40 47t18.5 64t4.5 69.5v457h91v-457q0 -55 -9 -105.5t-33.5 -89.5t-68 -62t-111.5 -23z" />
<glyph unicode="K" horiz-adv-x="646" d="M92 722h91v-318l294 318h108l-321 -341l367 -381h-122l-326 343v-343h-91v722z" />
<glyph unicode="L" horiz-adv-x="515" d="M92 722h91v-644h311v-78h-402v722z" />
<glyph unicode="M" horiz-adv-x="854" d="M92 722h109l227 -600l226 600h108v-722h-91l4 542l-210 -542h-76l-210 542l4 -542h-91v722z" />
<glyph unicode="N" horiz-adv-x="700" d="M92 722h95l332 -562l-2 562h91v-722h-95l-332 562l2 -562h-91v722z" />
<glyph unicode="O" horiz-adv-x="705" d="M352 66q54 0 90 23.5t58.5 63.5t32 93.5t9.5 114.5t-9.5 114.5t-32 93.5t-58.5 63.5t-90 23.5t-90 -23.5t-58.5 -63.5t-32 -93.5t-9.5 -114.5t9.5 -114.5t32 -93.5t58.5 -63.5t90 -23.5zM352 -15q-75 0 -129.5 28.5t-89 79t-51 119.5t-16.5 149t16.5 149t51 119.5t89 79 t129.5 28.5t129.5 -28.5t89.5 -79t51.5 -119.5t16.5 -149t-16.5 -149t-51.5 -119.5t-89.5 -79t-129.5 -28.5z" />
<glyph unicode="P" horiz-adv-x="626" d="M335 375q40 0 69.5 11t48.5 30t28.5 43t9.5 51q0 26 -9.5 50.5t-28.5 43t-48.5 29.5t-69.5 11h-152v-269h152zM92 722h243q61 0 108 -15.5t79 -44t49 -67.5t17 -85q0 -47 -17 -86t-49 -67.5t-79 -44t-108 -15.5h-152v-297h-91v722z" />
<glyph unicode="Q" horiz-adv-x="700" d="M352 66q54 0 90 23.5t58.5 63.5t32 93.5t9.5 114.5t-9.5 114.5t-32 93.5t-58.5 63.5t-90 23.5t-90 -23.5t-58.5 -63.5t-32 -93.5t-9.5 -114.5t9.5 -114.5t32 -93.5t58.5 -63.5t90 -23.5zM352 -14h-17q-129 5 -199 103.5t-70 271.5q0 80 16.5 149t51 119.5t89 79 t129.5 28.5t129.5 -28.5t89.5 -79t51.5 -119.5t16.5 -149q0 -78 -14.5 -139.5t-40 -106.5t-60.5 -73.5t-75 -41.5l95 -168h-106z" />
<glyph unicode="R" horiz-adv-x="652" d="M342 387q37 0 65.5 10.5t47.5 28t28.5 41t9.5 49.5t-9.5 49t-28.5 40.5t-47.5 28t-65.5 10.5h-159v-257h159zM92 722h250q59 0 104.5 -15t77 -42.5t48 -65.5t16.5 -83q0 -43 -15 -80t-43.5 -64.5t-69.5 -43t-93 -15.5h-69l299 -313h-121l-293 311v-311h-91v722z" />
<glyph unicode="S" horiz-adv-x="616" d="M314 -15q-67 0 -116 17t-81.5 47t-48 70t-15.5 85h98q0 -32 12.5 -57.5t34.5 -43.5t51.5 -27.5t64.5 -9.5q75 0 115 32.5t40 94.5q0 40 -29.5 64.5t-73.5 43t-95 36t-95 43t-73.5 64t-29.5 99.5q0 42 14.5 78t44 61.5t73 40t100.5 14.5q54 0 98 -14.5t75.5 -41t48.5 -64 t17 -84.5h-97q0 54 -37.5 89.5t-104.5 35.5q-70 0 -104 -33t-34 -82q0 -32 17 -54t45 -38.5t63.5 -29l72.5 -26t72.5 -29.5t63.5 -39t45 -55.5t17 -78.5q0 -97 -63.5 -152.5t-185.5 -55.5z" />
<glyph unicode="T" horiz-adv-x="541" d="M225 644h-197v78h485v-78h-197v-644h-91v644z" />
<glyph unicode="U" horiz-adv-x="691" d="M346 -15q-70 0 -118.5 23t-78.5 66t-43.5 104.5t-13.5 139.5v404h91v-404q0 -53 7 -99t25 -80t49.5 -53.5t81.5 -19.5q49 0 80.5 19.5t50 53.5t25.5 80t7 99v404h91v-404q0 -78 -13.5 -139.5t-43.5 -104.5t-78.5 -66t-118.5 -23z" />
<glyph unicode="V" horiz-adv-x="633" d="M6 722h97l216 -611l212 611h96l-259 -722h-103z" />
<glyph unicode="W" horiz-adv-x="901" d="M6 722h97l164 -587l139 587h90l144 -587l159 587h96l-207 -722h-103l-134 569l-135 -569h-103z" />
<glyph unicode="X" horiz-adv-x="586" d="M245 370l-220 352h104l165 -275l165 275h102l-220 -350l232 -372h-104l-177 294l-177 -294h-102z" />
<glyph unicode="Y" horiz-adv-x="548" d="M228 282l-228 440h100l174 -352l177 352h97l-229 -440v-282h-91v282z" />
<glyph unicode="Z" horiz-adv-x="589" d="M50 78l359 566h-332v78h438v-78l-359 -566h380v-78h-486v78z" />
<glyph unicode="&#xc6;" horiz-adv-x="982" d="M475 275v312l-200 -312h200zM468 722h450v-78h-352v-233h280v-78h-280v-255h362v-78h-453v196h-250l-126 -196h-99z" />
<glyph unicode="&#x152;" horiz-adv-x="1049" d="M352 66q54 0 90 23.5t58.5 63.5t32 93.5t9.5 114.5t-9.5 114.5t-32 93.5t-58.5 63.5t-90 23.5t-90 -23.5t-58.5 -63.5t-32 -93.5t-9.5 -114.5t9.5 -114.5t32 -93.5t58.5 -63.5t90 -23.5zM352 -15q-75 0 -129 28.5t-89 79t-51.5 119.5t-16.5 149t16.5 149t51.5 119.5 t89 79t129 28.5q40 0 73 -11.5t59.5 -31t44.5 -44.5t28 -52v124h428v-78h-352v-233h280v-78h-280v-255h362v-78h-438v122q-11 -27 -29.5 -51.5t-44.5 -43.5t-59 -30.5t-72 -11.5z" />
<glyph unicode="&#xc0;" horiz-adv-x="659" d="M452 275l-125 347l-125 -347h250zM278 722h103l265 -722h-97l-71 196h-303l-70 -196h-92zM176 929h111l81 -147h-82z" />
<glyph unicode="&#xc7;" horiz-adv-x="685" d="M355 -234q-24 0 -42 8t-30.5 21.5t-19 30t-6.5 34.5h55q0 -20 12.5 -31t28.5 -11q18 0 30 12.5t12 29.5q0 21 -12.5 31.5t-33.5 10.5h-55l28 85q-67 6 -115.5 37t-79.5 80.5t-46 115t-15 141.5q0 80 16.5 149t52 119.5t90 79t130.5 28.5q54 0 100 -16.5t81.5 -48t57 -78 t25.5 -106.5h-89q-8 48 -24.5 80.5t-40 52t-51.5 27.5t-59 8q-53 0 -89.5 -22t-59.5 -61.5t-33.5 -93.5t-10.5 -118t10.5 -118t34 -93.5t60 -61.5t88.5 -22q30 0 57 7.5t49 24t37.5 44t23.5 67.5h90q-5 -51 -24 -91t-49.5 -68t-71 -44.5t-87.5 -19.5l-13 -36q42 -1 63 -26.5 t21 -64.5q0 -18 -6 -34.5t-18 -29.5t-30 -21t-42 -8z" />
<glyph unicode="&#xc9;" horiz-adv-x="599" d="M92 722h443v-78h-352v-233h279v-78h-279v-255h362v-78h-453v722zM339 929h115l-131 -147h-82z" />
<glyph unicode="&#xca;" horiz-adv-x="599" d="M253 930h115l107 -148h-82l-83 97l-82 -97h-82zM92 722h443v-78h-352v-233h279v-78h-279v-255h362v-78h-453v722z" />
<glyph unicode="&#xcb;" horiz-adv-x="599" d="M92 722h443v-78h-352v-233h279v-78h-279v-255h362v-78h-453v722zM430 782q-26 0 -45 18.5t-19 44.5t19 45t45 19q27 0 46 -19t19 -45t-19 -44.5t-46 -18.5zM203 782q-26 0 -45 18.5t-19 44.5t19 45t45 19t45.5 -19t19.5 -45t-19.5 -44.5t-45.5 -18.5z" />
<glyph unicode="&#xc8;" horiz-adv-x="599" d="M187 929h111l81 -147h-82zM92 722h443v-78h-352v-233h279v-78h-279v-255h362v-78h-453v722z" />
<glyph unicode="&#xcf;" horiz-adv-x="275" d="M238 782q-26 0 -45 18.5t-19 44.5t19 45t45 19q27 0 46 -19t19 -45t-19 -44.5t-46 -18.5zM41 782q-26 0 -45 18.5t-19 44.5t19 45t45 19t45 -19t19 -45t-19 -44.5t-45 -18.5zM92 722h91v-722h-91v722z" />
<glyph unicode="&#x13f;" horiz-adv-x="515" d="M92 722h91v-644h311v-78h-402v722zM365 296q-27 0 -46 19t-19 46t19 46t46 19t46 -19t19 -46t-19 -46t-46 -19z" />
<glyph unicode="&#xd1;" horiz-adv-x="700" d="M421 779q-25 0 -44 8t-35.5 17l-32.5 17t-35 8q-26 0 -48 -13.5t-39 -31.5v72q14 14 35.5 30.5t56.5 16.5q24 0 42.5 -7.5t35 -17t32.5 -17t36 -7.5q26 0 48 13.5t39 31.5v-73q-13 -14 -34.5 -30.5t-56.5 -16.5zM92 722h95l332 -562l-2 562h91v-722h-95l-332 562l2 -562 h-91v722z" />
<glyph unicode="&#xd4;" horiz-adv-x="705" d="M294 930h115l107 -148h-82l-83 97l-82 -97h-82zM352 66q54 0 90 23.5t58.5 63.5t32 93.5t9.5 114.5t-9.5 114.5t-32 93.5t-58.5 63.5t-90 23.5t-90 -23.5t-58.5 -63.5t-32 -93.5t-9.5 -114.5t9.5 -114.5t32 -93.5t58.5 -63.5t90 -23.5zM352 -15q-75 0 -129.5 28.5t-89 79 t-51 119.5t-16.5 149t16.5 149t51 119.5t89 79t129.5 28.5t129.5 -28.5t89.5 -79t51.5 -119.5t16.5 -149t-16.5 -149t-51.5 -119.5t-89.5 -79t-129.5 -28.5z" />
<glyph unicode="&#xd6;" horiz-adv-x="705" d="M352 66q54 0 90 23.5t58.5 63.5t32 93.5t9.5 114.5t-9.5 114.5t-32 93.5t-58.5 63.5t-90 23.5t-90 -23.5t-58.5 -63.5t-32 -93.5t-9.5 -114.5t9.5 -114.5t32 -93.5t58.5 -63.5t90 -23.5zM352 -15q-75 0 -129.5 28.5t-89 79t-51 119.5t-16.5 149t16.5 149t51 119.5t89 79 t129.5 28.5t129.5 -28.5t89.5 -79t51.5 -119.5t16.5 -149t-16.5 -149t-51.5 -119.5t-89.5 -79t-129.5 -28.5zM465 782q-26 0 -45 18.5t-19 44.5t19 45t45 19q27 0 46 -19t19 -45t-19 -44.5t-46 -18.5zM238 782q-26 0 -45 18.5t-19 44.5t19 45t45 19t45.5 -19t19.5 -45 t-19.5 -44.5t-45.5 -18.5z" />
<glyph unicode="a" horiz-adv-x="536" d="M217 52q36 0 63 12t45 31.5t27.5 45t9.5 52.5v51l-101 -15q-66 -9 -100 -31.5t-34 -65.5q0 -31 22 -55.5t68 -24.5zM200 -15q-75 0 -117 39.5t-42 102.5q0 67 54.5 107t171.5 57l95 13v32q0 33 -8 54t-21.5 33t-31.5 17t-38 5q-51 0 -79.5 -21t-31.5 -65h-84 q3 31 16.5 59t38 49t60.5 33t84 12q42 0 75 -9.5t56.5 -31.5t36 -57.5t12.5 -86.5v-158l73 -169h-92l-44 101q-23 -54 -67.5 -85t-116.5 -31z" />
<glyph unicode="b" horiz-adv-x="580" d="M301 56q34 0 59.5 15.5t42.5 42t25.5 61.5t8.5 74t-8.5 73.5t-25.5 61t-42.5 42t-59.5 15.5q-39 0 -65.5 -18t-42 -46t-22.5 -62t-7 -66t7 -66.5t22.5 -62.5t42 -46t65.5 -18zM79 722h85v-318q21 50 64 79t97 29q51 0 89 -20t63 -55.5t37.5 -83.5t12.5 -104t-13 -104.5 t-38.5 -84t-64.5 -55.5t-90 -20t-93 26.5t-64 74.5v-86h-85v722z" />
<glyph unicode="c" horiz-adv-x="536" d="M283 -15q-54 0 -96.5 20.5t-72 56.5t-45.5 84t-16 103q0 54 15.5 102t44.5 84t71 56.5t95 20.5q43 0 78 -13.5t61 -37.5t42 -57.5t21 -72.5h-85q-2 21 -10.5 40.5t-23.5 35t-36 25t-48 9.5q-35 0 -60.5 -15t-42 -41.5t-24.5 -61.5t-8 -74q0 -41 8.5 -76t25.5 -61t43 -41 t61 -15q49 0 78.5 26.5t38.5 71.5h85q-15 -80 -69 -124.5t-131 -44.5z" />
<glyph unicode="d" horiz-adv-x="580" d="M279 56q39 0 65 18t42 46t22.5 62t6.5 66t-6.5 66.5t-22.5 62.5t-42 46t-65 18q-35 0 -60.5 -15.5t-42 -42t-25 -61.5t-8.5 -74t8.5 -73.5t25 -61t42 -42t60.5 -15.5zM254 -15q-51 0 -89 20t-62.5 55.5t-37 83.5t-12.5 104t13 104.5t38.5 84t64 55.5t89.5 20 q52 0 93.5 -26.5t63.5 -74.5v311h86v-722h-86v93q-21 -50 -64 -79t-97 -29z" />
<glyph unicode="e" horiz-adv-x="554" d="M412 282q-2 30 -10.5 59t-25 51t-41 35.5t-57.5 13.5q-31 0 -55 -13t-41 -34.5t-27 -50.5t-12 -61h269zM284 -15q-54 0 -96.5 20.5t-72.5 56.5t-46 84t-16 103t15.5 103t44.5 83.5t71 56t95 20.5t94 -21t69.5 -57t43.5 -83.5t15 -100.5v-15.5t-1 -15.5h-357q3 -33 13 -63 t27.5 -52t42.5 -35t58 -13q42 0 72.5 18t45.5 50h88q-9 -29 -26.5 -54.5t-43 -44t-60 -29.5t-76.5 -11z" />
<glyph unicode="f" horiz-adv-x="346" d="M110 427h-71v70h70l97 225h87l-96 -225h119v-70h-121v-427h-85v427z" />
<glyph unicode="g" horiz-adv-x="549" d="M255 209q48 0 78.5 33.5t30.5 85.5t-30.5 86t-78.5 34t-78.5 -34t-30.5 -86t30.5 -85.5t78.5 -33.5zM258 -168q69 0 108.5 25.5t39.5 68.5q0 42 -39.5 67t-108.5 25t-107.5 -26.5t-38.5 -65.5q0 -43 38.5 -68.5t107.5 -25.5zM258 -233q-54 0 -97 11t-73 32t-46 50.5 t-16 65.5q0 29 10 50.5t30 43.5l123 135q-55 16 -91.5 60.5t-36.5 112.5q0 40 14.5 74t40 58.5t61 38t78.5 13.5q54 0 93 -20t63 -50l108 75v-90l-77 -54q4 -8 5.5 -20.5t1.5 -24.5q0 -39 -13 -71.5t-36.5 -56t-56 -37.5t-71.5 -17l-63 -69q15 3 31.5 5t32.5 2q44 0 84 -9.5 t70 -29t47.5 -49.5t17.5 -70q0 -36 -16.5 -65.5t-47 -50.5t-73.5 -32t-97 -11z" />
<glyph unicode="h" horiz-adv-x="578" d="M79 722h85v-313q22 48 61 75.5t93 27.5q57 0 92.5 -20t55 -54.5t26.5 -82.5t7 -103v-252h-85v252q0 27 -2.5 60t-13.5 61.5t-34 47.5t-64 19q-36 0 -62 -18t-42.5 -45.5t-24 -59.5t-7.5 -60v-257h-85v722z" />
<glyph unicode="i" horiz-adv-x="243" d="M62 635q0 23 17.5 40.5t42.5 17.5q24 0 41.5 -17.5t17.5 -40.5q0 -24 -17.5 -41t-41.5 -17q-25 0 -42.5 17t-17.5 41zM79 497h85v-497h-85v497z" />
<glyph unicode="j" horiz-adv-x="243" d="M62 635q0 23 17.5 40.5t42.5 17.5q24 0 41.5 -17.5t17.5 -40.5q0 -24 -17.5 -41t-41.5 -17q-25 0 -42.5 17t-17.5 41zM79 0v497h85v-502l-91 -213h-88z" />
<glyph unicode="k" horiz-adv-x="517" d="M79 722h85v-422l210 197h104l-234 -220l264 -277h-111l-233 242v-242h-85v722z" />
<glyph unicode="l" horiz-adv-x="278" d="M79 204v518h85v-500l95 -222h-92z" />
<glyph unicode="m" horiz-adv-x="882" d="M79 497h75v-108q3 8 13 28.5t28 41.5t46.5 37t69.5 16q37 0 63 -11.5t44 -30t28.5 -42t16.5 -46.5q4 9 14.5 30t30 43.5t49.5 39.5t73 17q55 0 89 -20t53 -54.5t25.5 -82.5t6.5 -103v-252h-86v252q0 27 -2 60t-12.5 61.5t-32 47.5t-60.5 19q-34 0 -58 -18t-39.5 -45.5 t-22.5 -59.5t-7 -60v-257h-85v252q0 27 -2 60t-12.5 61.5t-32 47.5t-60.5 19q-34 0 -58 -18t-39.5 -45.5t-23 -59.5t-7.5 -60v-257h-85v497z" />
<glyph unicode="n" horiz-adv-x="578" d="M79 497h75v-108q3 8 13 28.5t29.5 41.5t49 37t72.5 16q57 0 92.5 -20t55 -54.5t26.5 -82.5t7 -103v-252h-85v252q0 27 -2.5 60t-13.5 61.5t-34 47.5t-64 19q-36 0 -62 -18t-42.5 -45.5t-24 -59.5t-7.5 -60v-257h-85v497z" />
<glyph unicode="o" horiz-adv-x="563" d="M282 56q35 0 61 15t43 41.5t25.5 61.5t8.5 75q0 39 -8.5 74t-25.5 61.5t-43 41.5t-61 15q-36 0 -62 -15t-43 -41.5t-25.5 -61.5t-8.5 -74q0 -40 8.5 -75t25.5 -61.5t43 -41.5t62 -15zM282 -15q-53 0 -95.5 20.5t-72 56.5t-45.5 84t-16 103q0 54 16 102t45.5 84t72 56.5 t95.5 20.5t95.5 -20.5t72 -56.5t45 -84t15.5 -102q0 -55 -15.5 -103t-45 -84t-72 -56.5t-95.5 -20.5z" />
<glyph unicode="p" horiz-adv-x="580" d="M301 56q34 0 59.5 15.5t42.5 42t25.5 61.5t8.5 74t-8.5 73.5t-25.5 61t-42.5 42t-59.5 15.5q-39 0 -65.5 -18t-42 -46t-22.5 -62t-7 -66t7 -66.5t22.5 -62.5t42 -46t65.5 -18zM79 497h85v-93q21 50 64 79t97 29q51 0 89 -20t63 -55.5t37.5 -83.5t12.5 -104t-13 -104.5 t-38.5 -84t-64.5 -55.5t-90 -20t-93 26.5t-64 74.5v-304h-85v715z" />
<glyph unicode="q" horiz-adv-x="580" d="M279 56q39 0 65 18t42 46t22.5 62t6.5 66t-6.5 66.5t-22.5 62.5t-42 46t-65 18q-35 0 -60.5 -15.5t-42 -42t-25 -61.5t-8.5 -74t8.5 -73.5t25 -61t42 -42t60.5 -15.5zM254 -15q-51 0 -89 20t-62.5 55.5t-37 83.5t-12.5 104t13 104.5t38.5 84t64 55.5t89.5 20 q52 0 93.5 -26.5t63.5 -74.5v86h86v-715h-86v311q-21 -50 -64 -79t-97 -29z" />
<glyph unicode="r" horiz-adv-x="372" d="M79 497h75v-111l188 131v-90l-178 -124v-303h-85v497z" />
<glyph unicode="s" horiz-adv-x="513" d="M255 -15q-91 0 -144.5 41t-57.5 115h86q5 -46 35 -67.5t81 -21.5q54 0 87 20.5t33 62.5q0 31 -23 46t-57.5 24.5t-75 17.5t-75 23.5t-57.5 43.5t-23 78q0 34 14 60.5t39 45t60.5 28.5t77.5 10t76.5 -10.5t59.5 -31t39.5 -49t15.5 -64.5h-84q-1 17 -7.5 33t-19 28 t-32.5 19.5t-48 7.5q-52 0 -80 -20t-28 -54q0 -31 23 -47t58 -26t75.5 -18t75.5 -24t58 -43.5t23 -76.5q0 -38 -16 -66.5t-44 -47.5t-65.5 -28t-79.5 -9z" />
<glyph unicode="t" horiz-adv-x="350" d="M109 204v223h-78v70h78v115l86 88v-203h117v-70h-117v-205l95 -222h-93z" />
<glyph unicode="u" horiz-adv-x="578" d="M164 497v-252q0 -27 2.5 -60t13.5 -61.5t34 -47.5t64 -19q36 0 61.5 18t42 45.5t24.5 59.5t8 60v257h85v-497h-75v108q-3 -8 -13 -28.5t-29.5 -41.5t-49 -37t-72.5 -16q-57 0 -92.5 20t-55 54.5t-26.5 82t-7 103.5v252h85z" />
<glyph unicode="v" horiz-adv-x="469" d="M11 497h89l135 -398l137 398h86l-180 -497h-87z" />
<glyph unicode="w" horiz-adv-x="745" d="M11 497h89l116 -398l118 398h79l115 -398l119 398h87l-162 -497h-88l-112 385l-112 -385h-87z" />
<glyph unicode="x" horiz-adv-x="490" d="M199 259l-170 238h99l117 -173l119 173h94l-169 -234l188 -263h-99l-135 198l-136 -198h-94z" />
<glyph unicode="y" horiz-adv-x="477" d="M196 -1l-185 498h89l139 -402l141 402h87l-265 -715h-85z" />
<glyph unicode="z" horiz-adv-x="479" d="M48 70l274 357h-257v70h357v-70l-273 -357h281v-70h-382v70z" />
<glyph unicode="&#xe6;" horiz-adv-x="859" d="M717 290q-2 24 -10 50.5t-24 49t-40.5 37t-59.5 14.5q-33 0 -57 -14t-40.5 -35.5t-25.5 -48.5t-11 -53h268zM217 52q36 0 63 12t45.5 32t27.5 45t9 52v34h-64q-30 0 -60.5 -4.5t-55 -16t-40 -29.5t-15.5 -45q0 -21 7.5 -36t20 -24.5t29 -14.5t33.5 -5zM795 124 q-9 -29 -26.5 -54.5t-43 -44t-59.5 -29.5t-76 -11q-72 0 -122.5 35.5t-70.5 92.5q-9 -27 -27 -50t-43 -40.5t-57.5 -27.5t-69.5 -10q-75 0 -117 39.5t-42 102.5q0 35 17.5 65t51.5 51.5t83.5 34t114.5 12.5h54v46q0 24 -4.5 44t-15.5 34.5t-30 22.5t-49 8q-51 0 -79.5 -21 t-31.5 -65h-84q3 31 16.5 59t38 49t59.5 33t81 12q27 0 51.5 -4t44.5 -14.5t36 -28.5t26 -47q23 43 64.5 68.5t98.5 25.5q52 0 93 -20.5t69.5 -56t44 -82.5t15.5 -99v-27h-357q1 -36 11 -67t28 -54.5t43.5 -36.5t58.5 -13q25 0 45 6.5t34 16t23.5 21.5t14.5 24h88z" />
<glyph unicode="&#x153;" horiz-adv-x="922" d="M779 282q-1 30 -10 59t-25.5 51t-40.5 35.5t-57 13.5q-31 0 -55 -13t-41 -34.5t-27 -50.5t-12 -61h268zM282 56q35 0 61 15t43 41.5t25.5 61.5t8.5 75q0 39 -8.5 74t-25.5 61.5t-43 41.5t-61 15q-36 0 -62 -15t-43 -41.5t-25.5 -61.5t-8.5 -74q0 -40 8.5 -75t25.5 -61.5 t43 -41.5t62 -15zM282 -15q-53 0 -95.5 20.5t-72 56.5t-45.5 84t-16 103q0 54 16 102t45.5 84t72 56.5t95.5 20.5q68 0 113 -34t69 -91q23 57 68.5 91t113.5 34q53 0 94.5 -21t70 -57t43.5 -83.5t15 -100.5q0 -5 -0.5 -15.5t-1.5 -15.5h-356q2 -33 12 -63t27.5 -52t43 -35 t58.5 -13q41 0 72 18t46 50h87q-9 -29 -26.5 -54.5t-43 -44t-59.5 -29.5t-76 -11q-70 0 -116.5 34t-70.5 91q-23 -57 -69 -91t-114 -34z" />
<glyph unicode="&#xe0;" horiz-adv-x="536" d="M217 52q36 0 63 12t45 31.5t27.5 45t9.5 52.5v51l-101 -15q-66 -9 -100 -31.5t-34 -65.5q0 -31 22 -55.5t68 -24.5zM200 -15q-75 0 -117 39.5t-42 102.5q0 67 54.5 107t171.5 57l95 13v32q0 33 -8 54t-21.5 33t-31.5 17t-38 5q-51 0 -79.5 -21t-31.5 -65h-84 q3 31 16.5 59t38 49t60.5 33t84 12q42 0 75 -9.5t56.5 -31.5t36 -57.5t12.5 -86.5v-158l73 -169h-92l-44 101q-23 -54 -67.5 -85t-116.5 -31zM152 720h90l81 -153h-72z" />
<glyph unicode="&#xe7;" horiz-adv-x="536" d="M278 -234q-24 0 -42 8t-30.5 21.5t-19 30t-6.5 34.5h55q0 -20 12.5 -31t28.5 -11q18 0 30 12.5t12 29.5q0 21 -12.5 31.5t-33.5 10.5h-55l29 86q-45 7 -81 29.5t-61 57.5t-38 79.5t-13 94.5q0 54 15.5 102t44.5 84t71 56.5t95 20.5q43 0 78 -13.5t61 -37.5t42 -57.5 t21 -72.5h-85q-2 21 -10.5 40.5t-23.5 35t-36 25t-48 9.5q-35 0 -60.5 -15t-42 -41.5t-24.5 -61.5t-8 -74q0 -41 8.5 -76t25.5 -61t43 -41t61 -15q49 0 78.5 26.5t38.5 71.5h85q-14 -75 -62.5 -118.5t-117.5 -49.5l-13 -36q42 -1 63 -26.5t21 -64.5q0 -18 -6 -34.5 t-18 -29.5t-30 -21t-42 -8z" />
<glyph unicode="&#xe9;" horiz-adv-x="554" d="M315 716h99l-114 -151h-66zM412 282q-2 30 -10.5 59t-25 51t-41 35.5t-57.5 13.5q-31 0 -55 -13t-41 -34.5t-27 -50.5t-12 -61h269zM284 -15q-54 0 -96.5 20.5t-72.5 56.5t-46 84t-16 103t15.5 103t44.5 83.5t71 56t95 20.5t94 -21t69.5 -57t43.5 -83.5t15 -100.5v-15.5 t-1 -15.5h-357q3 -33 13 -63t27.5 -52t42.5 -35t58 -13q42 0 72.5 18t45.5 50h88q-9 -29 -26.5 -54.5t-43 -44t-60 -29.5t-76.5 -11z" />
<glyph unicode="&#xea;" horiz-adv-x="554" d="M229 716h95l98 -151h-71l-75 99l-75 -99h-70zM412 282q-2 30 -10.5 59t-25 51t-41 35.5t-57.5 13.5q-31 0 -55 -13t-41 -34.5t-27 -50.5t-12 -61h269zM284 -15q-54 0 -96.5 20.5t-72.5 56.5t-46 84t-16 103t15.5 103t44.5 83.5t71 56t95 20.5t94 -21t69.5 -57t43.5 -83.5 t15 -100.5v-15.5t-1 -15.5h-357q3 -33 13 -63t27.5 -52t42.5 -35t58 -13q42 0 72.5 18t45.5 50h88q-9 -29 -26.5 -54.5t-43 -44t-60 -29.5t-76.5 -11z" />
<glyph unicode="&#xeb;" horiz-adv-x="554" d="M375 577q-25 0 -42.5 16t-17.5 41q0 24 17.5 41t42.5 17q26 0 43 -17t17 -41q0 -25 -17 -41t-43 -16zM177 577q-25 0 -42.5 16t-17.5 41q0 24 17.5 41t42.5 17q26 0 43 -17t17 -41q0 -25 -17 -41t-43 -16zM412 282q-2 30 -10.5 59t-25 51t-41 35.5t-57.5 13.5 q-31 0 -55 -13t-41 -34.5t-27 -50.5t-12 -61h269zM284 -15q-54 0 -96.5 20.5t-72.5 56.5t-46 84t-16 103t15.5 103t44.5 83.5t71 56t95 20.5t94 -21t69.5 -57t43.5 -83.5t15 -100.5v-15.5t-1 -15.5h-357q3 -33 13 -63t27.5 -52t42.5 -35t58 -13q42 0 72.5 18t45.5 50h88 q-9 -29 -26.5 -54.5t-43 -44t-60 -29.5t-76.5 -11z" />
<glyph unicode="&#xe8;" horiz-adv-x="554" d="M412 282q-2 30 -10.5 59t-25 51t-41 35.5t-57.5 13.5q-31 0 -55 -13t-41 -34.5t-27 -50.5t-12 -61h269zM284 -15q-54 0 -96.5 20.5t-72.5 56.5t-46 84t-16 103t15.5 103t44.5 83.5t71 56t95 20.5t94 -21t69.5 -57t43.5 -83.5t15 -100.5v-15.5t-1 -15.5h-357q3 -33 13 -63 t27.5 -52t42.5 -35t58 -13q42 0 72.5 18t45.5 50h88q-9 -29 -26.5 -54.5t-43 -44t-60 -29.5t-76.5 -11zM158 720h90l81 -153h-72z" />
<glyph unicode="&#xef;" horiz-adv-x="243" d="M201 576q-23 0 -38.5 15.5t-15.5 38.5t15.5 39t38.5 16t39 -16t16 -39t-16 -38.5t-39 -15.5zM39 576q-23 0 -39 15.5t-16 38.5t16 39t39 16t38.5 -16t15.5 -39t-15.5 -38.5t-38.5 -15.5zM79 497h85v-497h-85v497z" />
<glyph unicode="&#x140;" horiz-adv-x="335" d="M79 204v518h85v-500l95 -222h-92zM286 296q-27 0 -46 19t-19 46t19 46t46 19t46 -19t19 -46t-19 -46t-46 -19z" />
<glyph unicode="&#xf1;" horiz-adv-x="578" d="M79 497h75v-108q3 8 13 28.5t29.5 41.5t49 37t72.5 16q57 0 92.5 -20t55 -54.5t26.5 -82.5t7 -103v-252h-85v252q0 27 -2.5 60t-13.5 61.5t-34 47.5t-64 19q-36 0 -62 -18t-42.5 -45.5t-24 -59.5t-7.5 -60v-257h-85v497zM354 579q-23 0 -41 7t-33 15t-29.5 15t-31.5 7 q-23 0 -42.5 -11t-36.5 -29v63q12 12 31.5 27.5t51.5 15.5q22 0 39.5 -6.5t32.5 -15t30 -15t33 -6.5q24 0 43 11.5t36 28.5v-63q-11 -13 -31 -28.5t-52 -15.5z" />
<glyph unicode="&#xf4;" horiz-adv-x="563" d="M234 716h95l98 -151h-71l-75 99l-75 -99h-70zM282 56q35 0 61 15t43 41.5t25.5 61.5t8.5 75q0 39 -8.5 74t-25.5 61.5t-43 41.5t-61 15q-36 0 -62 -15t-43 -41.5t-25.5 -61.5t-8.5 -74q0 -40 8.5 -75t25.5 -61.5t43 -41.5t62 -15zM282 -15q-53 0 -95.5 20.5t-72 56.5 t-45.5 84t-16 103q0 54 16 102t45.5 84t72 56.5t95.5 20.5t95.5 -20.5t72 -56.5t45 -84t15.5 -102q0 -55 -15.5 -103t-45 -84t-72 -56.5t-95.5 -20.5z" />
<glyph unicode="&#xf6;" horiz-adv-x="563" d="M380 577q-25 0 -42.5 16t-17.5 41q0 24 17.5 41t42.5 17q26 0 43 -17t17 -41q0 -25 -17 -41t-43 -16zM182 577q-25 0 -42.5 16t-17.5 41q0 24 17.5 41t42.5 17q26 0 43 -17t17 -41q0 -25 -17 -41t-43 -16zM282 56q35 0 61 15t43 41.5t25.5 61.5t8.5 75q0 39 -8.5 74 t-25.5 61.5t-43 41.5t-61 15q-36 0 -62 -15t-43 -41.5t-25.5 -61.5t-8.5 -74q0 -40 8.5 -75t25.5 -61.5t43 -41.5t62 -15zM282 -15q-53 0 -95.5 20.5t-72 56.5t-45.5 84t-16 103q0 54 16 102t45.5 84t72 56.5t95.5 20.5t95.5 -20.5t72 -56.5t45 -84t15.5 -102 q0 -55 -15.5 -103t-45 -84t-72 -56.5t-95.5 -20.5z" />
<glyph unicode="$" horiz-adv-x="616" d="M275 -13q-57 5 -99 23.5t-69 47.5t-40.5 66.5t-13.5 79.5h98q0 -56 34.5 -90.5t89.5 -44.5v265q-38 14 -74 31t-64.5 41t-46 57t-17.5 80q0 79 51 132t151 61v94h74v-96q90 -11 142.5 -64t52.5 -137h-97q0 44 -25.5 76.5t-72.5 43.5v-252q39 -14 77.5 -30t68.5 -39.5 t49 -57t19 -81.5q0 -90 -54.5 -144t-159.5 -62v-98h-74v98zM469 193q0 22 -9.5 38.5t-25.5 30t-38 24.5t-47 21v-239q59 7 89.5 39t30.5 86zM167 543q0 -44 30.5 -70t77.5 -45v228q-55 -8 -81.5 -39t-26.5 -74z" />
<glyph unicode="&#xa2;" d="M143 353q0 -68 25 -117t76 -65v366q-51 -15 -76 -66t-25 -118zM244 94q-44 7 -79.5 30t-60 58t-38 79t-13.5 93t13 93t38 78.5t60.5 57.5t79.5 30v109h69v-107q38 -4 69.5 -19t54.5 -38.5t37.5 -54.5t18.5 -67h-83q-1 18 -8 35t-19.5 31.5t-30 24.5t-39.5 14v-376 q40 6 65 30.5t33 63.5h83q-14 -74 -63 -117t-118 -50v-92h-69v94z" />
<glyph unicode="&#xa3;" horiz-adv-x="637" d="M66 78q70 35 70 138v110h-80v76h80v72q0 58 9.5 106.5t32.5 83.5t61.5 54t97.5 19q45 0 82.5 -12.5t64.5 -40.5t41.5 -71.5t14.5 -104.5h-90q0 33 -5.5 60t-18.5 46.5t-34 30.5t-54 11q-35 0 -57 -14.5t-34 -39t-16.5 -58t-4.5 -70.5v-72h180v-76h-180v-111 q0 -25 -6 -46.5t-15.5 -38.5t-20.5 -30.5t-21 -21.5h265l153 89v-84l-143 -83h-372v78z" />
<glyph unicode="&#xa5;" d="M228 140h-151v69h151v71h-151v69h117l-194 373h99l177 -353l175 353h96l-194 -373h117v-69h-151v-71h151v-69h-151v-140h-91v140z" />
<glyph unicode="&#x20ac;" horiz-adv-x="682" d="M393 -15q-59 0 -105.5 21t-80.5 57.5t-54.5 86t-27.5 106.5h-85v63h78q-1 7 -1 14v27v32q0 9 1 18h-78v64h86q8 54 29 101.5t54.5 83.5t79 57t104.5 21q95 0 151 -40.5t79 -108.5l-81 -17q-21 45 -57 67t-92 22q-40 0 -70.5 -14.5t-53 -40t-36 -59.5t-19.5 -72h316 l-18 -64h-306q-1 -8 -1 -16q-1 -7 -1 -16v-18v-28q0 -7 1 -13h282l-17 -63h-256q11 -90 60 -142t119 -52q48 0 80 17.5t55 53.5l84 -27q-32 -63 -88.5 -92t-130.5 -29z" />
<glyph unicode="&#xa4;" horiz-adv-x="651" d="M325 127q-43 0 -78 13t-61 36l-71 -71l-43 42l76 76q-38 59 -38 138q0 36 9 70.5t26 63.5l-73 74l47 46l68 -69q26 23 61 36.5t77 13.5t76.5 -13.5t61.5 -36.5l69 69l47 -46l-74 -74q18 -29 27 -63.5t9 -70.5q0 -76 -39 -138l77 -76l-43 -42l-73 72q-26 -23 -61 -36.5 t-77 -13.5zM325 198q33 0 59 13.5t43.5 36.5t27 52t9.5 61t-9.5 62t-27.5 52.5t-43.5 36t-58.5 13.5t-59 -13.5t-44 -36.5t-27.5 -52.5t-9.5 -61.5t9.5 -61.5t27.5 -52t44 -36t59 -13.5z" />
<glyph unicode="#" horiz-adv-x="683" d="M410 259l37 205h-170l-37 -205h170zM142 184h-138l15 75h137l36 205h-136l12 75h139l32 183h84l-33 -183h170l33 183h84l-33 -183h135l-14 -75h-135l-37 -205h136l-15 -75h-135l-32 -184h-85l34 184h-169l-33 -184h-85z" />
<glyph unicode="0" horiz-adv-x="626" d="M313 66q49 0 80.5 24t49.5 64.5t25 94t7 112.5t-7 112.5t-25 94t-49.5 64.5t-80.5 24t-80.5 -24t-49.5 -64.5t-25 -94t-7 -112.5t7 -112.5t25 -94t49.5 -64.5t80.5 -24zM313 -15q-68 0 -116.5 28.5t-80 78.5t-46.5 119t-15 150t15 150t46.5 119t80 78.5t116.5 28.5 q67 0 116 -28.5t80.5 -78.5t46.5 -119t15 -150t-15 -150t-46.5 -119t-80.5 -78.5t-116 -28.5z" />
<glyph unicode="1" horiz-adv-x="372" d="M193 623l-163 -107v97l169 109h85v-722h-91v623z" />
<glyph unicode="2" horiz-adv-x="633" d="M80 78l250 238q17 16 36 38t35 48t26.5 56t10.5 62q0 61 -28.5 98.5t-90.5 37.5q-59 0 -95 -37t-36 -115h-91q0 45 13 87.5t40 74.5t69.5 51.5t101.5 19.5q55 0 95.5 -17t66.5 -46.5t38.5 -69.5t12.5 -86q0 -40 -13.5 -78t-34.5 -71.5t-46 -61.5t-47 -49l-194 -180h354 v-78h-473v78z" />
<glyph unicode="3" horiz-adv-x="634" d="M320 -15q-54 0 -99 15t-77.5 44t-51 70.5t-18.5 94.5h91q0 -33 11.5 -59.5t32 -45t48 -28.5t60.5 -10q75 0 111 39t36 102q0 31 -12 55t-32.5 41t-48 26t-58.5 9h-31v74h30q29 0 52.5 9.5t40 26t25.5 38.5t9 48q0 21 -5.5 42.5t-19.5 39t-37.5 29t-59.5 11.5 q-59 0 -91 -36.5t-32 -90.5h-91q0 47 16 85.5t44.5 65.5t68 42t85.5 15q100 0 158 -52.5t58 -145.5q0 -29 -9 -55t-24 -47t-34 -36t-39 -22q24 -7 47.5 -21.5t43 -37t31.5 -52t12 -65.5q0 -48 -15.5 -88.5t-45.5 -69t-75 -44.5t-105 -16z" />
<glyph unicode="4" horiz-adv-x="614" d="M335 183h-272v78l190 461h92l-192 -461h182v150h91v-150h140v-78h-140v-183h-91v183z" />
<glyph unicode="5" horiz-adv-x="632" d="M302 -15q-52 0 -91.5 14.5t-67 39.5t-43 59t-19.5 72h89q10 -48 40 -76t92 -28q71 0 109 47.5t38 125.5q0 35 -7.5 65.5t-24 53t-42 35.5t-60.5 13q-53 0 -84 -27.5t-46 -75.5h-89l34 419h380v-78h-299l-23 -254q5 16 17 32.5t31.5 30t46.5 22t61 8.5q50 0 88 -18 t63.5 -50t38 -77t12.5 -99q0 -51 -14.5 -97t-44.5 -81t-76 -55.5t-109 -20.5z" />
<glyph unicode="6" horiz-adv-x="635" d="M317 66q39 0 66 13.5t44 36.5t24.5 53.5t7.5 65.5q0 31 -8.5 60t-25.5 51t-44 35t-64 13q-31 0 -57 -12t-44.5 -33t-29 -50.5t-10.5 -64.5q0 -27 6 -56.5t21.5 -54t43 -41t70.5 -16.5zM317 -15q-57 0 -101 19.5t-74.5 53t-46 79t-15.5 97.5q0 46 15 92t37 84l183 312h102 l-190 -307q20 17 50.5 29.5t70.5 12.5q43 0 80.5 -15t66 -43.5t45 -70t16.5 -93.5t-15.5 -97.5t-45.5 -79.5t-74.5 -53.5t-103.5 -19.5z" />
<glyph unicode="7" horiz-adv-x="530" d="M396 644h-348v78h440v-78l-251 -644h-97z" />
<glyph unicode="8" horiz-adv-x="627" d="M313 412q23 0 47.5 8t44 24t32 38.5t12.5 52.5q0 31 -11.5 54.5t-30 39t-43 23.5t-51.5 8q-26 0 -50.5 -8t-43.5 -23.5t-30.5 -39t-11.5 -54.5q0 -30 12.5 -52.5t32.5 -38.5t44 -24t47 -8zM313 64q31 0 60 9t51.5 26.5t35.5 43.5t13 61q0 33 -15 58.5t-38.5 42t-51.5 25 t-55 8.5q-26 0 -54.5 -8.5t-51.5 -25t-38 -42t-15 -58.5q0 -35 13 -61t35 -43.5t51 -26.5t60 -9zM313 -15q-53 0 -99.5 14t-81 42t-54.5 69t-20 94q0 43 17.5 74t40.5 51.5t45.5 32l32.5 16.5q-6 6 -23.5 16.5t-36 29t-32.5 45.5t-14 66q0 47 18 84.5t48.5 63.5t71.5 40 t87 14t87 -14t72 -40t48.5 -63.5t17.5 -84.5q0 -39 -14 -66t-32 -45.5t-35.5 -29t-23.5 -16.5l32.5 -16.5t45.5 -32t40.5 -51t17.5 -74.5q0 -53 -20 -94t-55 -69t-81.5 -42t-99.5 -14z" />
<glyph unicode="9" horiz-adv-x="629" d="M176 487q0 -32 8.5 -60.5t26 -50.5t44 -35t63.5 -13q31 0 57 12t44.5 33t29 50.5t10.5 64.5q0 27 -6 56.5t-22 54t-43 41t-70 16.5q-39 0 -66 -13t-44 -36t-24.5 -54t-7.5 -66zM80 487q0 52 15 97.5t45 79.5t74.5 53.5t103.5 19.5q57 0 101.5 -19.5t74.5 -53t46 -79 t16 -97.5q0 -46 -15.5 -92t-37.5 -84l-183 -312h-102l190 307q-19 -17 -50 -29.5t-71 -12.5q-43 0 -80.5 15t-65.5 43.5t-44.5 69.5t-16.5 94z" />
<glyph unicode="+" d="M60 397h176v174h75v-174h176v-73h-176v-172h-75v172h-176v73z" />
<glyph unicode="&#x3c;" d="M487 238v-87l-427 169v82l427 169v-86l-334 -123z" />
<glyph unicode="&#x3e;" d="M394 362l-334 123v86l427 -169v-82l-427 -169v87z" />
<glyph unicode="=" d="M60 319h427v-73h-427v73zM60 478h427v-73h-427v73z" />
<glyph unicode="|" horiz-adv-x="258" d="M84 867h90v-1043h-90v1043z" />
<glyph unicode="'" horiz-adv-x="232" d="M74 722h88l-9 -267h-71z" />
<glyph unicode="&#x22;" horiz-adv-x="368" d="M214 722h84l-9 -267h-67zM70 722h84l-9 -267h-68z" />
<glyph unicode="_" horiz-adv-x="550" d="M50 0h450v-76h-450v76z" />
<glyph unicode="&#x2014;" horiz-adv-x="1000" d="M50 353h900v-75h-900v75z" />
<glyph unicode="&#x2013;" horiz-adv-x="500" d="M50 353h400v-75h-400v75z" />
<glyph unicode="-" horiz-adv-x="350" d="M50 353h250v-75h-250v75z" />
<glyph unicode="&#x2039;" horiz-adv-x="303" d="M58 228v73l187 168v-91l-123 -113l123 -114v-91z" />
<glyph unicode="&#x203a;" horiz-adv-x="303" d="M57 60v91l123 114l-123 113v91l187 -168v-73z" />
<glyph unicode="&#x2019;" horiz-adv-x="228" d="M83 722h89l-47 -261h-73z" />
<glyph unicode="&#x201d;" horiz-adv-x="379" d="M235 722h88l-47 -261h-73zM83 722h89l-47 -261h-73z" />
<glyph unicode="&#x2018;" horiz-adv-x="229" d="M103 722h73l-31 -261h-89z" />
<glyph unicode="&#x201c;" horiz-adv-x="379" d="M255 722h72l-31 -261h-89zM103 722h73l-31 -261h-89z" />
<glyph unicode="," horiz-adv-x="235" d="M88 130h89l-59 -287h-68z" />
<glyph unicode="." horiz-adv-x="311" d="M156 -11q-27 0 -45.5 18.5t-18.5 44.5t18.5 44.5t45.5 18.5q26 0 45 -18.5t19 -44.5t-19 -44.5t-45 -18.5z" />
<glyph unicode=":" horiz-adv-x="311" d="M156 -11q-27 0 -45.5 18.5t-18.5 44.5t18.5 44.5t45.5 18.5q26 0 45 -18.5t19 -44.5t-19 -44.5t-45 -18.5zM156 380q-27 0 -45.5 18.5t-18.5 44.5t18.5 44.5t45.5 18.5q26 0 45 -18.5t19 -44.5t-19 -44.5t-45 -18.5z" />
<glyph unicode=";" horiz-adv-x="254" d="M92 130h89l-59 -287h-68zM137 380q-27 0 -45.5 18.5t-18.5 44.5t18.5 44.5t45.5 18.5q26 0 45 -18.5t19 -44.5t-19 -44.5t-45 -18.5z" />
<glyph unicode="?" horiz-adv-x="499" d="M236 -6q-26 0 -44.5 18t-18.5 44t18.5 44.5t44.5 18.5q27 0 45.5 -18.5t18.5 -44.5t-18.5 -44t-45.5 -18zM195 233q0 44 12.5 76.5t31.5 57t41 44t41 39t31.5 41.5t12.5 52q0 16 -4 36.5t-16.5 39t-35 31t-59.5 12.5q-40 0 -63 -16t-34.5 -37.5t-14.5 -44t-3 -35.5h-87 q0 94 52 151t148 57q44 0 81.5 -12.5t64.5 -37.5t42.5 -62t15.5 -85q0 -39 -13.5 -68t-33.5 -52t-43 -43t-43 -41t-33.5 -46t-13.5 -57v-42h-77v42z" />
<glyph unicode="&#xbf;" horiz-adv-x="499" d="M263 510q26 0 44.5 -18t18.5 -44t-18.5 -44.5t-44.5 -18.5q-27 0 -45.5 18.5t-18.5 44.5t18.5 44t45.5 18zM304 271q0 -44 -12.5 -76.5t-31.5 -57t-41 -44t-41 -39t-31.5 -42t-12.5 -51.5q0 -16 4 -36.5t16.5 -39t35 -31t59.5 -12.5q40 0 63 16t34.5 37.5t14.5 44t3 35.5 h87q0 -94 -52 -151t-148 -57q-44 0 -81.5 12.5t-64.5 37.5t-42.5 62t-15.5 85q0 39 13.5 68t33.5 52t43 43t43 41t33.5 45.5t13.5 57.5v42h77v-42z" />
<glyph unicode="!" horiz-adv-x="311" d="M156 -8q-27 0 -45.5 18.5t-18.5 44.5t18.5 44.5t45.5 18.5q26 0 45 -18.5t19 -44.5t-19 -44.5t-45 -18.5zM109 722h96l-16 -525h-66z" />
<glyph unicode="&#xa1;" horiz-adv-x="311" d="M156 511q26 0 45 -18.5t19 -44.5t-19 -44.5t-45 -18.5q-27 0 -45.5 18.5t-18.5 44.5t18.5 44.5t45.5 18.5zM123 306h66l16 -525h-96z" />
<glyph unicode="(" horiz-adv-x="343" d="M209 -160q-39 51 -70 123q-26 61 -47.5 151.5t-21.5 211.5t21.5 211t47.5 152q31 71 70 123h78q-37 -54 -66 -126q-25 -62 -45 -152t-20 -208t20 -208.5t45 -152.5q29 -72 66 -125h-78v0z" />
<glyph unicode=")" horiz-adv-x="343" d="M56 -160q37 53 66 125q25 62 45.5 152.5t20.5 208.5t-20.5 208t-45.5 152q-29 72 -66 126h78q38 -52 69 -123q26 -62 48 -152t22 -211t-22 -211.5t-48 -151.5q-31 -72 -69 -123h-78v0z" />
<glyph unicode="[" horiz-adv-x="373" d="M92 812h225v-68h-147v-835h147v-69h-225v972z" />
<glyph unicode="]" horiz-adv-x="373" d="M56 -91h147v835h-147v68h225v-972h-225v69z" />
<glyph unicode="{" horiz-adv-x="391" d="M294 -160q-74 0 -112 39.5t-38 111.5v217q0 18 -8 32.5t-21.5 24.5t-30.5 16t-36 7v70q19 1 36 7t30.5 16t21.5 24t8 33v224q0 72 39 111t111 39h41v-68h-39q-40 0 -57.5 -19.5t-17.5 -57.5v-236q0 -38 -22.5 -67.5t-63.5 -40.5q41 -11 63.5 -41.5t22.5 -68.5v-227 q0 -38 17.5 -57.5t57.5 -19.5h39v-69h-41v0z" />
<glyph unicode="}" horiz-adv-x="391" d="M97 -160h-41v69h39q40 0 57.5 19.5t17.5 57.5v227q0 38 22.5 68.5t63.5 41.5q-41 11 -63.5 40.5t-22.5 67.5v236q0 38 -17.5 57.5t-57.5 19.5h-39v68h41q72 0 111 -39t39 -111v-224q0 -19 8 -33t21.5 -24t30.5 -16t36 -7v-70q-19 -1 -36 -7t-30.5 -16t-21.5 -24.5 t-8 -32.5v-217q0 -72 -38 -111.5t-112 -39.5z" />
<glyph unicode="/" horiz-adv-x="539" d="M434 821h92l-420 -1020h-93z" />
<glyph unicode="\" horiz-adv-x="539" d="M525 -199h-93l-420 1020h92z" />
<glyph unicode="*" horiz-adv-x="421" d="M181 498l-106 -62l-31 54l110 60l-110 60l31 54l106 -62l-2 124h63l-2 -124l106 62l31 -54l-110 -60l110 -60l-31 -54l-106 62l2 -124h-63z" />
<glyph unicode="&#x2022;" horiz-adv-x="405" d="M72 361q0 27 10 50.5t28 41.5t41.5 28t50.5 10t51 -10t41.5 -28t28 -41.5t10.5 -50.5t-10.5 -50.5t-28 -41t-41.5 -27.5t-51 -10t-50.5 10t-41.5 27.5t-28 41t-10 50.5z" />
<glyph unicode="&#xa7;" horiz-adv-x="623" d="M522 67q0 -32 -11.5 -64.5t-36.5 -59t-65 -43.5t-97 -17q-45 0 -84 13.5t-67.5 38.5t-44.5 61t-16 80h94q0 -18 6.5 -39t20.5 -38.5t36.5 -29.5t54.5 -12t55 10t37.5 26t21 35.5t6.5 38.5q0 41 -27.5 66.5t-68.5 44t-89 35t-89 40.5t-68.5 60t-27.5 94q0 39 18 74.5 t54 60.5q-15 20 -24 45.5t-9 57.5t11.5 64.5t36 59t64 43.5t96.5 17q46 0 83.5 -13.5t64.5 -38.5t41.5 -61t14.5 -80h-94q0 18 -5 39t-17 39t-33.5 30t-54.5 12q-32 0 -54 -10t-36 -26t-20.5 -36t-6.5 -39q0 -41 27.5 -66.5t68.5 -44t88.5 -35t88.5 -40.5t68.5 -60t27.5 -94 q0 -42 -18 -77t-54 -59q15 -20 24 -45t9 -57zM468 302q0 38 -27 62.5t-68 43t-88.5 36.5t-88.5 43q-23 -14 -32 -32.5t-9 -44.5q0 -39 27 -63t67.5 -43t87.5 -36.5t88 -42.5q24 14 33.5 32.5t9.5 44.5z" />
<glyph unicode="&#x2020;" horiz-adv-x="566" d="M238 446h-202v81h202v240h91v-240h201v-81h-201v-476h-91v476z" />
<glyph unicode="&#xa9;" horiz-adv-x="901" d="M138 361q0 -65 24.5 -122t66.5 -99.5t99 -67t122 -24.5t121.5 24.5t98.5 67t66.5 99.5t24.5 122t-24.5 122t-66.5 99.5t-98.5 67t-121.5 24.5t-122 -24.5t-99 -67t-66.5 -99.5t-24.5 -122zM75 360q0 78 29.5 146.5t80 119.5t119 80.5t146.5 29.5t146.5 -29.5t119.5 -80.5 t80.5 -119.5t29.5 -146.5t-29.5 -146.5t-80.5 -119t-119.5 -80t-146.5 -29.5t-146.5 29.5t-119 80t-80 119t-29.5 146.5zM464 119q-49 0 -88 19t-66.5 52t-42 77t-14.5 95q0 50 14 94t41 76.5t65.5 51.5t86.5 19q80 0 128.5 -46.5t57.5 -119.5h-78q-2 19 -9.5 37t-21.5 32.5 t-33.5 23t-44.5 8.5q-32 0 -55.5 -14t-38.5 -38t-22.5 -56t-7.5 -68q0 -37 7.5 -69.5t23.5 -56.5t40 -38t56 -14q45 0 72.5 24.5t35.5 66.5h78q-14 -74 -63.5 -115t-120.5 -41z" />
<glyph unicode="&#xae;" horiz-adv-x="641" d="M335 489q31 0 42.5 17.5t11.5 35.5q0 23 -13.5 37.5t-44.5 14.5h-68v-105h72zM217 633h114q54 0 80.5 -24.5t26.5 -66.5q0 -38 -24 -63.5t-68 -25.5h-25l126 -132h-62l-122 131v-131h-46v312zM322 248q46 0 86 17.5t70 47.5t47.5 70.5t17.5 86.5t-17.5 86.5t-47.5 70.5 t-70 47t-86 17q-47 0 -88 -17t-71.5 -47t-48 -70.5t-17.5 -86.5t17.5 -86.5t48 -70.5t71.5 -47.5t88 -17.5zM321 202q-56 0 -104.5 21t-85.5 57.5t-58 85.5t-21 104t21 103.5t58 84.5t85.5 57t104.5 21q55 0 104 -21t86 -57t58 -84.5t21 -103.5t-21 -104t-57.5 -85.5 t-85.5 -57.5t-105 -21z" />
<glyph unicode="&#x2122;" horiz-adv-x="623" d="M108 673h-78v49h211v-49h-77v-272h-56v272zM277 722h64l83 -246l86 246h63v-321h-56l3 202l-69 -202h-51l-72 205l5 -205h-56v321z" />
<glyph unicode="@" horiz-adv-x="1141" d="M509 94q42 0 76 24.5t58 62.5t37 84.5t13 90.5q0 29 -6.5 55t-19 46t-32 31.5t-46.5 11.5q-41 0 -76.5 -22.5t-61 -59t-40 -83.5t-14.5 -95q0 -27 6 -53t19.5 -46.5t34.5 -33.5t52 -13zM579 -209q-109 0 -200 39.5t-156.5 108t-102 160.5t-36.5 197t40 195.5t108.5 157 t160 105t194.5 38.5q114 0 201.5 -36t147.5 -97.5t90.5 -145t30.5 -177.5q0 -64 -15 -120.5t-43 -98.5t-67.5 -66.5t-87.5 -24.5q-42 0 -68.5 18.5t-42 43t-21.5 49.5t-8 38q-13 -30 -32 -57.5t-46 -48.5t-61.5 -33.5t-78.5 -12.5q-45 0 -78.5 17.5t-55 46.5t-32.5 68 t-11 83q0 74 22.5 135.5t60.5 105.5t87.5 68t103.5 24q61 0 100.5 -37t47.5 -95l22 117h77l-55 -297q-6 -31 -5 -61t10 -53t25.5 -37.5t40.5 -14.5q32 0 57.5 20t43 53.5t27 77.5t9.5 92q0 79 -24 150t-73 124.5t-123.5 85t-175.5 31.5q-88 0 -165.5 -33.5t-136 -92 t-92.5 -138t-34 -170.5q0 -92 31.5 -171.5t88 -138.5t133.5 -93t167 -34q78 0 137.5 23t98.5 51l36 -58q-50 -33 -118.5 -57t-153.5 -24z" />
<glyph unicode="&#x26;" horiz-adv-x="672" d="M246 66q25 0 45.5 7.5t38.5 20t35 29.5l35 36l-136 160l-59 -42q-29 -22 -45.5 -49.5t-16.5 -65.5q0 -40 28.5 -68t74.5 -28zM346 480q26 20 39.5 41.5t13.5 48.5q0 16 -5.5 32.5t-16.5 30t-29 22t-43 8.5q-53 0 -79 -29t-26 -72q0 -17 6 -32.5t14 -29t17.5 -25 l15.5 -18.5l25 -28zM244 -15q-42 0 -76.5 13t-59 36.5t-38.5 54.5t-14 67q0 62 25.5 104.5t68.5 73.5l63 46l-28 34t-33 45.5t-27 51.5t-11 54q0 44 15.5 76.5t42.5 53.5t62.5 31.5t74.5 10.5q42 0 75 -12.5t56.5 -35t35.5 -53t12 -65.5q0 -40 -23.5 -78.5t-66.5 -70.5 l-72 -55l130 -152l80 95h100l-131 -156l129 -154h-101l-80 95q-22 -23 -43.5 -43t-45.5 -35t-53 -23.5t-67 -8.5z" />
<glyph unicode="%" horiz-adv-x="905" d="M210 352q22 0 37 12t24 33t13 49.5t4 61.5t-3.5 62t-12.5 50t-24 33t-38 12q-24 0 -39.5 -12t-24 -33t-12 -50t-3.5 -62t4 -61.5t13 -49.5t24 -33t38 -12zM210 283q-41 0 -71 17t-50 47t-29.5 71.5t-9.5 89.5q0 49 9.5 90.5t29 71.5t50 47t71.5 17t71 -17t49.5 -47 t29 -71.5t9.5 -90.5q0 -48 -9.5 -89.5t-29 -71.5t-49.5 -47t-71 -17zM696 59q22 0 37 12t24 33t13 49.5t4 61.5t-3.5 62t-12.5 50t-24 33t-38 12q-24 0 -39.5 -12t-24 -33t-12 -50t-3.5 -62t4 -61.5t13 -49.5t24 -33t38 -12zM696 -10q-41 0 -71 17t-50 47t-29.5 71.5 t-9.5 89.5q0 49 9.5 90.5t29 71.5t50 47t71.5 17t71 -17t49.5 -47t29 -71.5t9.5 -90.5q0 -48 -9.5 -89.5t-29 -71.5t-49.5 -47t-71 -17zM626 722h80l-427 -722h-82z" />
<glyph unicode="&#x2030;" horiz-adv-x="1283" d="M210 352q22 0 37 12t24 33t13 49.5t4 61.5t-3.5 62t-12.5 50t-24 33t-38 12q-24 0 -39.5 -12t-24 -33t-12 -50t-3.5 -62t4 -61.5t13 -49.5t24 -33t38 -12zM210 283q-41 0 -71 17t-50 47t-29.5 71.5t-9.5 89.5q0 49 9.5 90.5t29 71.5t50 47t71.5 17t71 -17t49.5 -47 t29 -71.5t9.5 -90.5q0 -48 -9.5 -89.5t-29 -71.5t-49.5 -47t-71 -17zM696 59q22 0 37 12t24 33t13 49.5t4 61.5t-3.5 62t-12.5 50t-24 33t-38 12q-24 0 -39.5 -12t-24 -33t-12 -50t-3.5 -62t4 -61.5t13 -49.5t24 -33t38 -12zM696 -10q-41 0 -71 17t-50 47t-29.5 71.5 t-9.5 89.5q0 49 9.5 90.5t29 71.5t50 47t71.5 17t71 -17t49.5 -47t29 -71.5t9.5 -90.5q0 -48 -9.5 -89.5t-29 -71.5t-49.5 -47t-71 -17zM1074 59q22 0 37 12t24 33t13 49.5t4 61.5t-3.5 62t-12.5 50t-24 33t-38 12q-24 0 -39.5 -12t-24 -33t-12 -50t-3.5 -62t4 -61.5 t13 -49.5t24 -33t38 -12zM1074 -10q-41 0 -71 17t-50 47t-29.5 71.5t-9.5 89.5q0 49 9.5 90.5t29 71.5t50 47t71.5 17t71 -17t49.5 -47t29 -71.5t9.5 -90.5q0 -48 -9.5 -89.5t-29 -71.5t-49.5 -47t-71 -17zM626 722h80l-427 -722h-82z" />
</font>
</defs>
</svg>
